{"title":"Death Tube 2010 DVDRip Xvid (English Subtitles) BigPerm LKRG","uid":6659435,"size":1158984235,"categoryP":"video","categoryS":"movies","magnet":"?xt=urn:btih:294d11148c1360942c23eb3a4b0f9dbf440022af&amp;dn=Death+Tube+2010+DVDRip+Xvid+%28English+Subtitles%29+BigPerm+LKRG&amp;tr=udp%3A%2F%2Ftracker.openbittorrent.com%3A80&amp;tr=udp%3A%2F%2Fopen.demonii.com%3A1337&amp;tr=udp%3A%2F%2Ftracker.coppersurfer.tk%3A6969&amp;tr=udp%3A%2F%2Fexodus.desync.com%3A6969","seeders":0,"leechers":1,"uploader":".BONE.","files":2,"time":1315458441,"description":"PLOT\n\nA young girl gets hooked on a website called &quot;Death Tube,&quot; which broadcasts actual\nmurders in real time. At first she didn't believe it was real, until she is brought\ninto the site itself. The killing game is about to begin.\n &lt;a href=&quot;\nhttp://www.imdb.com/title/tt1686330/&quot; rel=&quot;nofollow&quot; target=&quot;_NEW&quot;&gt;\nhttp://www.imdb.com/title/tt1686330/&lt;/a&gt;\n\n\nEncoded By .......: BigPerm1828\nRuntime ..........: 1h 56mn\nFile Size ........: 1.08 GB\nResolution .......: 704 x 396\nIMDb URL .........: http://www.imdb.com/title/tt1686330/\nGenre ............: Horror\nLanguage .........: Japanese\nSubtitles ........: Hardcoded English\nVideo\nID : 0\nFormat : MPEG-4 Visual\nFormat profile : Advanced Simple@L5\nFormat settings, BVOP : Yes\nFormat settings, QPel : No\nFormat settings, GMC : No warppoints\nFormat settings, Matrix : Default (H.263)\nCodec ID : XVID\nCodec ID/Hint : XviD\nDuration : 1h 56mn\nBit rate : 43.1 Kbps\nWidth : 704 pixels\nHeight : 396 pixels\nDisplay aspect ratio : 16:9\nFrame rate : 29.970 fps\nColor space : YUV\nChroma subsampling : 4:2:0\nBit depth : 8 bits\nScan type : Progressive\nCompression mode : Lossy\nBits/(Pixel*Frame) : 0.005\nStream size : 35.8 MiB (3%)\nWriting library : XviD 1.2.1 (UTC 2008-12-04)\n\nAudio\nID : 1\nFormat : AC-3\nFormat/Info : Audio Coding 3\nCodec ID : 2000\nDuration : 1h 56mn\nBit rate mode : Constant\nBit rate : 224 Kbps\nChannel(s) : 2 channels\nSampling rate : 48.0 KHz\nBit depth : 16 bits\nCompression mode : Lossy\nStream size : 186 MiB (17%)\nAlignment : Aligned on interleaves","torrent":{"xt":"urn:btih:294d11148c1360942c23eb3a4b0f9dbf440022af","amp;dn":"Death+Tube+2010+DVDRip+Xvid+%28English+Subtitles%29+BigPerm+LKRG","amp;tr":["udp%3A%2F%2Ftracker.openbittorrent.com%3A80","udp%3A%2F%2Fopen.demonii.com%3A1337","udp%3A%2F%2Ftracker.coppersurfer.tk%3A6969","udp%3A%2F%2Fexodus.desync.com%3A6969"],"infoHash":"294d11148c1360942c23eb3a4b0f9dbf440022af","infoHashBuffer":{"type":"Buffer","data":[41,77,17,20,140,19,96,148,44,35,235,58,75,15,157,191,68,0,34,175]},"announce":[],"urlList":[]}}